<svg width="33" height="33" viewBox="0 0 33 33" fill="none" xmlns="http://www.w3.org/2000/svg">
<path d="M16.7503 13.7235L14.8809 11.8542L16.9839 9.71776H11.4093V7.04726H16.9839L14.8475 4.91085L16.7503 3.0415L22.0913 8.38251L16.7503 13.7235ZM10.074 29.7465C9.33962 29.7465 8.71094 29.485 8.18796 28.9621C7.66499 28.4391 7.4035 27.8104 7.4035 27.076C7.4035 26.3416 7.66499 25.7129 8.18796 25.19C8.71094 24.667 9.33962 24.4055 10.074 24.4055C10.8084 24.4055 11.4371 24.667 11.96 25.19C12.483 25.7129 12.7445 26.3416 12.7445 27.076C12.7445 27.8104 12.483 28.4391 11.96 28.9621C11.4371 29.485 10.8084 29.7465 10.074 29.7465ZM23.4265 29.7465C22.6921 29.7465 22.0634 29.485 21.5405 28.9621C21.0175 28.4391 20.756 27.8104 20.756 27.076C20.756 26.3416 21.0175 25.7129 21.5405 25.19C22.0634 24.667 22.6921 24.4055 23.4265 24.4055C24.1609 24.4055 24.7896 24.667 25.3126 25.19C25.8355 25.7129 26.097 26.3416 26.097 27.076C26.097 27.8104 25.8355 28.4391 25.3126 28.9621C24.7896 29.485 24.1609 29.7465 23.4265 29.7465ZM2.0625 5.71201V3.0415H6.43545L12.1103 15.0588H21.457L26.6645 5.71201H29.7022L23.8271 16.3272C23.5823 16.7723 23.254 17.1173 22.8423 17.3621C22.4306 17.6069 21.98 17.7293 21.4904 17.7293H11.5428L10.074 20.3998H26.097V23.0703H10.074C9.07257 23.0703 8.31036 22.6363 7.78739 21.7684C7.26441 20.9005 7.24772 20.0214 7.73732 19.1313L9.5399 15.8599L4.733 5.71201H2.0625Z" fill="#322F35"/>
</svg>
