<svg width="32" height="33" viewBox="0 0 32 33" fill="none" xmlns="http://www.w3.org/2000/svg">
<path d="M18.9584 13.4062V11.1041C19.7031 10.7882 20.4649 10.5512 21.2435 10.3932C22.0222 10.2352 22.8403 10.1562 23.6979 10.1562C24.2847 10.1562 24.8603 10.2013 25.4245 10.2916C25.9887 10.3819 26.5417 10.4948 27.0834 10.6302V12.7968C26.5417 12.5937 25.9944 12.4414 25.4414 12.3398C24.8885 12.2382 24.3073 12.1875 23.6979 12.1875C22.8403 12.1875 22.0165 12.2947 21.2266 12.5091C20.4367 12.7235 19.6806 13.0225 18.9584 13.4062ZM18.9584 20.8541V18.552C19.7031 18.2361 20.4649 17.9991 21.2435 17.8411C22.0222 17.6831 22.8403 17.6041 23.6979 17.6041C24.2847 17.6041 24.8603 17.6493 25.4245 17.7395C25.9887 17.8298 26.5417 17.9427 27.0834 18.0781V20.2448C26.5417 20.0416 25.9944 19.8893 25.4414 19.7877C24.8885 19.6862 24.3073 19.6354 23.6979 19.6354C22.8403 19.6354 22.0165 19.7369 21.2266 19.9401C20.4367 20.1432 19.6806 20.4479 18.9584 20.8541ZM18.9584 17.1302V14.8281C19.7031 14.5121 20.4649 14.2751 21.2435 14.1171C22.0222 13.9592 22.8403 13.8802 23.6979 13.8802C24.2847 13.8802 24.8603 13.9253 25.4245 14.0156C25.9887 14.1059 26.5417 14.2187 27.0834 14.3541V16.5208C26.5417 16.3177 25.9944 16.1653 25.4414 16.0638C24.8885 15.9622 24.3073 15.9114 23.6979 15.9114C22.8403 15.9114 22.0165 16.0186 21.2266 16.233C20.4367 16.4474 19.6806 16.7465 18.9584 17.1302ZM8.8021 21.6666C9.86287 21.6666 10.8954 21.7851 11.8998 22.0221C12.9041 22.2591 13.9028 22.6145 14.8959 23.0885V9.74996C13.9705 9.20829 12.9887 8.80204 11.9505 8.53121C10.9123 8.26038 9.86287 8.12496 8.8021 8.12496C7.9896 8.12496 7.18275 8.20395 6.38153 8.36194C5.58032 8.51992 4.80731 8.7569 4.06252 9.07288V22.4791C4.85245 22.2083 5.63674 22.0052 6.41538 21.8697C7.19403 21.7343 7.9896 21.6666 8.8021 21.6666ZM17.6042 23.0885C18.5972 22.6145 19.5959 22.2591 20.6003 22.0221C21.6046 21.7851 22.6372 21.6666 23.6979 21.6666C24.5104 21.6666 25.306 21.7343 26.0847 21.8697C26.8633 22.0052 27.6476 22.2083 28.4375 22.4791V9.07288C27.6927 8.7569 26.9197 8.51992 26.1185 8.36194C25.3173 8.20395 24.5104 8.12496 23.6979 8.12496C22.6372 8.12496 21.5877 8.26038 20.5495 8.53121C19.5113 8.80204 18.5295 9.20829 17.6042 9.74996V23.0885ZM16.25 27.0833C15.1667 26.2257 13.9931 25.5599 12.7292 25.0859C11.4653 24.6119 10.1563 24.375 8.8021 24.375C7.85419 24.375 6.9232 24.4991 6.00913 24.7474C5.09507 24.9956 4.22051 25.3454 3.38544 25.7968C2.91148 26.0451 2.45445 26.0338 2.01434 25.763C1.57424 25.4921 1.35419 25.0972 1.35419 24.5781V8.26038C1.35419 8.01211 1.41625 7.77513 1.54038 7.54944C1.66452 7.32374 1.85071 7.15447 2.09898 7.04163C3.13717 6.49996 4.22051 6.09371 5.34898 5.82288C6.47745 5.55204 7.62849 5.41663 8.8021 5.41663C10.1111 5.41663 11.3919 5.5859 12.6446 5.92444C13.8972 6.26298 15.099 6.77079 16.25 7.44788C17.4011 6.77079 18.6029 6.26298 19.8555 5.92444C21.1081 5.5859 22.3889 5.41663 23.6979 5.41663C24.8715 5.41663 26.0226 5.55204 27.1511 5.82288C28.2795 6.09371 29.3629 6.49996 30.4011 7.04163C30.6493 7.15447 30.8355 7.32374 30.9597 7.54944C31.0838 7.77513 31.1459 8.01211 31.1459 8.26038V24.5781C31.1459 25.0972 30.9258 25.4921 30.4857 25.763C30.0456 26.0338 29.5886 26.0451 29.1146 25.7968C28.2795 25.3454 27.405 24.9956 26.4909 24.7474C25.5768 24.4991 24.6459 24.375 23.6979 24.375C22.3438 24.375 21.0347 24.6119 19.7709 25.0859C18.507 25.5599 17.3334 26.2257 16.25 27.0833Z" fill="#322F35"/>
</svg>
