<svg width="33" height="33" viewBox="0 0 33 33" fill="none" xmlns="http://www.w3.org/2000/svg">
<g clip-path="url(#clip0_3_503)">
<path d="M6.06808 27.1168C5.3337 27.1168 4.70502 26.8553 4.18204 26.3324C3.65907 25.8094 3.39758 25.1807 3.39758 24.4463V8.42331C3.39758 7.68892 3.65907 7.06024 4.18204 6.53727C4.70502 6.01429 5.3337 5.75281 6.06808 5.75281H27.4321C28.1665 5.75281 28.7952 6.01429 29.3181 6.53727C29.8411 7.06024 30.1026 7.68892 30.1026 8.42331V16.4348H6.06808V24.4463H19.4206V27.1168H6.06808ZM6.06808 11.0938H27.4321V8.42331H6.06808V11.0938ZM26.0968 29.7873V25.7816H22.0911V23.1111H26.0968V19.1053H28.7673V23.1111H32.7731V25.7816H28.7673V29.7873H26.0968Z" fill="#322F35"/>
</g>
<defs>
<clipPath id="clip0_3_503">
<rect width="32.046" height="32.046" fill="white" transform="translate(0.727051 0.411865)"/>
</clipPath>
</defs>
</svg>
