<svg width="33" height="33" viewBox="0 0 33 33" fill="none" xmlns="http://www.w3.org/2000/svg">
<path d="M27.2053 10.682H23.1996V5.341H4.50607C3.0373 5.341 1.83557 6.54273 1.83557 8.0115V22.6993H4.50607C4.50607 24.9158 6.29531 26.705 8.51182 26.705C10.7283 26.705 12.5176 24.9158 12.5176 22.6993H20.5291C20.5291 24.9158 22.3183 26.705 24.5348 26.705C26.7513 26.705 28.5406 24.9158 28.5406 22.6993H31.2111V16.023L27.2053 10.682ZM26.5377 12.6849L29.1548 16.023H23.1996V12.6849H26.5377ZM8.51182 24.0345C7.77744 24.0345 7.17657 23.4336 7.17657 22.6993C7.17657 21.9649 7.77744 21.364 8.51182 21.364C9.24621 21.364 9.84707 21.9649 9.84707 22.6993C9.84707 23.4336 9.24621 24.0345 8.51182 24.0345ZM11.4761 20.0288C10.7417 19.2143 9.7002 18.6935 8.51182 18.6935C7.32345 18.6935 6.28196 19.2143 5.54757 20.0288H4.50607V8.0115H20.5291V20.0288H11.4761ZM24.5348 24.0345C23.8004 24.0345 23.1996 23.4336 23.1996 22.6993C23.1996 21.9649 23.8004 21.364 24.5348 21.364C25.2692 21.364 25.8701 21.9649 25.8701 22.6993C25.8701 23.4336 25.2692 24.0345 24.5348 24.0345Z" fill="#322F35"/>
</svg>
