<svg width="25" height="25" viewBox="0 0 25 25" fill="none" xmlns="http://www.w3.org/2000/svg">
<path d="M12.9398 14.4637C12.1065 14.4637 11.3982 14.172 10.8148 13.5887C10.2315 13.0054 9.93982 12.297 9.93982 11.4637V5.46368C9.93982 4.63035 10.2315 3.92202 10.8148 3.33868C11.3982 2.75535 12.1065 2.46368 12.9398 2.46368C13.7732 2.46368 14.4815 2.75535 15.0648 3.33868C15.6482 3.92202 15.9398 4.63035 15.9398 5.46368V11.4637C15.9398 12.297 15.6482 13.0054 15.0648 13.5887C14.4815 14.172 13.7732 14.4637 12.9398 14.4637ZM11.9398 21.4637V18.3887C10.2065 18.1554 8.77315 17.3804 7.63982 16.0637C6.50649 14.747 5.93982 13.2137 5.93982 11.4637H7.93982C7.93982 12.847 8.42732 14.0262 9.40232 15.0012C10.3773 15.9762 11.5565 16.4637 12.9398 16.4637C14.3232 16.4637 15.5023 15.9762 16.4773 15.0012C17.4523 14.0262 17.9398 12.847 17.9398 11.4637H19.9398C19.9398 13.2137 19.3732 14.747 18.2398 16.0637C17.1065 17.3804 15.6732 18.1554 13.9398 18.3887V21.4637H11.9398ZM12.9398 12.4637C13.2232 12.4637 13.4607 12.3679 13.6523 12.1762C13.844 11.9845 13.9398 11.747 13.9398 11.4637V5.46368C13.9398 5.18035 13.844 4.94285 13.6523 4.75118C13.4607 4.55952 13.2232 4.46368 12.9398 4.46368C12.6565 4.46368 12.419 4.55952 12.2273 4.75118C12.0357 4.94285 11.9398 5.18035 11.9398 5.46368V11.4637C11.9398 11.747 12.0357 11.9845 12.2273 12.1762C12.419 12.3679 12.6565 12.4637 12.9398 12.4637Z" fill="#558235"/>
</svg>
