<svg xmlns="http://www.w3.org/2000/svg" width="28" height="25" viewBox="0 0 28 25" fill="none">
  <path d="M3.59173 24.9789C2.85725 24.9789 2.22849 24.7174 1.70546 24.1943C1.18242 23.6713 0.920898 23.0426 0.920898 22.3081V3.61224C0.920898 2.87776 1.18242 2.249 1.70546 1.72596C2.22849 1.20293 2.85725 0.941406 3.59173 0.941406H24.9584C25.6929 0.941406 26.3216 1.20293 26.8447 1.72596C27.3677 2.249 27.6292 2.87776 27.6292 3.61224V22.3081C27.6292 23.0426 27.3677 23.6713 26.8447 24.1943C26.3216 24.7174 25.6929 24.9789 24.9584 24.9789H3.59173ZM3.59173 22.3081H24.9584V3.61224H3.59173V22.3081ZM4.92715 19.6372H11.6042V16.9664H4.92715V19.6372ZM17.6804 16.9664L24.2907 10.3561L22.3877 8.45312L17.6804 13.1939L15.7774 11.2909L13.9078 13.1939L17.6804 16.9664ZM4.92715 14.2956H11.6042V11.6247H4.92715V14.2956ZM4.92715 8.95391H11.6042V6.28307H4.92715V8.95391Z" fill="#322F35"/>
</svg>