<svg width="21" height="20" viewBox="0 0 21 20" fill="none" xmlns="http://www.w3.org/2000/svg">
<path d="M5.66629 18.1118C4.97109 18.1118 4.38017 17.8684 3.89353 17.3818C3.40689 16.8952 3.16357 16.3042 3.16357 15.609V13.1063H5.66629V1.427L6.91764 2.67836L8.169 1.427L9.42036 2.67836L10.6717 1.427L11.9231 2.67836L13.1744 1.427L14.4258 2.67836L15.6771 1.427L16.9285 2.67836L18.1799 1.427V15.609C18.1799 16.3042 17.9365 16.8952 17.4499 17.3818C16.9633 17.8684 16.3723 18.1118 15.6771 18.1118H5.66629ZM15.6771 16.4433C15.9135 16.4433 16.1116 16.3633 16.2715 16.2034C16.4314 16.0435 16.5114 15.8454 16.5114 15.609V3.92972H7.33476V13.1063H14.8429V15.609C14.8429 15.8454 14.9229 16.0435 15.0827 16.2034C15.2426 16.3633 15.4408 16.4433 15.6771 16.4433ZM8.169 7.26667V5.59819H13.1744V7.26667H8.169ZM8.169 9.76938V8.1009H13.1744V9.76938H8.169ZM14.8429 7.26667C14.6065 7.26667 14.4084 7.18672 14.2485 7.02682C14.0886 6.86693 14.0087 6.6688 14.0087 6.43243C14.0087 6.19606 14.0886 5.99793 14.2485 5.83803C14.4084 5.67814 14.6065 5.59819 14.8429 5.59819C15.0793 5.59819 15.2774 5.67814 15.4373 5.83803C15.5972 5.99793 15.6771 6.19606 15.6771 6.43243C15.6771 6.6688 15.5972 6.86693 15.4373 7.02682C15.2774 7.18672 15.0793 7.26667 14.8429 7.26667ZM14.8429 9.76938C14.6065 9.76938 14.4084 9.68943 14.2485 9.52954C14.0886 9.36964 14.0087 9.17151 14.0087 8.93514C14.0087 8.69878 14.0886 8.50064 14.2485 8.34075C14.4084 8.18085 14.6065 8.1009 14.8429 8.1009C15.0793 8.1009 15.2774 8.18085 15.4373 8.34075C15.5972 8.50064 15.6771 8.69878 15.6771 8.93514C15.6771 9.17151 15.5972 9.36964 15.4373 9.52954C15.2774 9.68943 15.0793 9.76938 14.8429 9.76938ZM5.66629 16.4433H13.1744V14.7748H4.83205V15.609C4.83205 15.8454 4.912 16.0435 5.07189 16.2034C5.23179 16.3633 5.42992 16.4433 5.66629 16.4433Z" fill="#322F35"/>
</svg>
