<svg width="24" height="25" viewBox="0 0 24 25" fill="none" xmlns="http://www.w3.org/2000/svg">
<g clip-path="url(#clip0_5727_20970)">
<path d="M20.34 7.27523H18.4425C18.165 6.45773 17.4 5.86523 16.5 5.86523C15.6 5.86523 14.8275 6.45773 14.5575 7.27523H3.66C3.3 7.27523 3 7.56773 3 7.93523C3 8.30273 3.2925 8.59523 3.66 8.59523H14.5575C14.835 9.41273 15.6 10.0052 16.5 10.0052C17.4 10.0052 18.1725 9.41273 18.4425 8.59523H20.34C20.7 8.59523 21 8.30273 21 7.93523C21 7.56773 20.7075 7.27523 20.34 7.27523ZM16.5 8.68523C16.0875 8.68523 15.75 8.34773 15.75 7.93523C15.75 7.52273 16.0875 7.18523 16.5 7.18523C16.9125 7.18523 17.25 7.52273 17.25 7.93523C17.25 8.34773 16.9125 8.68523 16.5 8.68523ZM20.34 12.1502H9.4425C9.165 11.3327 8.4 10.7402 7.5 10.7402C6.6 10.7402 5.8275 11.3327 5.5575 12.1502H3.66C3.3 12.1502 3 12.4427 3 12.8102C3 13.1777 3.2925 13.4702 3.66 13.4702H5.5575C5.835 14.2877 6.6 14.8802 7.5 14.8802C8.4 14.8802 9.1725 14.2877 9.4425 13.4702H20.34C20.7 13.4702 21 13.1777 21 12.8102C21 12.4427 20.7075 12.1502 20.34 12.1502ZM7.5 13.5602C7.0875 13.5602 6.75 13.2227 6.75 12.8102C6.75 12.3977 7.0875 12.0602 7.5 12.0602C7.9125 12.0602 8.25 12.3977 8.25 12.8102C8.25 13.2227 7.9125 13.5602 7.5 13.5602ZM20.34 17.0252H18.4425C18.165 16.2077 17.4 15.6152 16.5 15.6152C15.6 15.6152 14.8275 16.2077 14.5575 17.0252H3.66C3.3 17.0252 3 17.3177 3 17.6852C3 18.0527 3.2925 18.3452 3.66 18.3452H14.5575C14.835 19.1627 15.6 19.7552 16.5 19.7552C17.4 19.7552 18.1725 19.1627 18.4425 18.3452H20.34C20.7 18.3452 21 18.0527 21 17.6852C21 17.3177 20.7075 17.0252 20.34 17.0252ZM16.5 18.4352C16.0875 18.4352 15.75 18.0977 15.75 17.6852C15.75 17.2727 16.0875 16.9352 16.5 16.9352C16.9125 16.9352 17.25 17.2727 17.25 17.6852C17.25 18.0977 16.9125 18.4352 16.5 18.4352Z" fill="#558235"/>
</g>
<defs>
<clipPath id="clip0_5727_20970">
<rect width="24" height="24" fill="white" transform="translate(0 0.810181)"/>
</clipPath>
</defs>
</svg>
